<mxfile host="app.diagrams.net" modified="2021-04-04T17:01:34.741Z" agent="5.0 (Windows NT 10.0; Win64; x64) AppleWebKit/537.36 (KHTML, like Gecko) Chrome/89.0.4389.114 Safari/537.36" etag="XIshUdC8iXB02c5l_cBP" version="14.5.1" type="github">
  <diagram id="n__AT01gdNv5Tcwq3zgV" name="Page-1">
    <mxGraphModel dx="1720" dy="922" grid="1" gridSize="10" guides="1" tooltips="1" connect="1" arrows="1" fold="1" page="1" pageScale="1" pageWidth="850" pageHeight="1100" math="0" shadow="0">
      <root>
        <mxCell id="0" />
        <mxCell id="1" parent="0" />
        <mxCell id="HFHnMpVE2H_I2ADA_7cu-1" value="Location" style="rounded=0;whiteSpace=wrap;html=1;" parent="1" vertex="1">
          <mxGeometry x="350" y="180" width="90" height="40" as="geometry" />
        </mxCell>
        <mxCell id="HFHnMpVE2H_I2ADA_7cu-2" value="Event" style="rounded=0;whiteSpace=wrap;html=1;" parent="1" vertex="1">
          <mxGeometry x="350" y="370" width="90" height="40" as="geometry" />
        </mxCell>
        <mxCell id="HFHnMpVE2H_I2ADA_7cu-4" value="Public Event" style="rounded=0;whiteSpace=wrap;html=1;" parent="1" vertex="1">
          <mxGeometry x="520" y="1044.94" width="90" height="40" as="geometry" />
        </mxCell>
        <mxCell id="HFHnMpVE2H_I2ADA_7cu-5" style="edgeStyle=orthogonalEdgeStyle;rounded=0;orthogonalLoop=1;jettySize=auto;html=1;fillColor=#001933;" parent="1" source="HFHnMpVE2H_I2ADA_7cu-6" target="HFHnMpVE2H_I2ADA_7cu-21" edge="1">
          <mxGeometry relative="1" as="geometry" />
        </mxCell>
        <mxCell id="HFHnMpVE2H_I2ADA_7cu-6" value="RSO Event" style="rounded=0;whiteSpace=wrap;html=1;" parent="1" vertex="1">
          <mxGeometry x="520" y="814.94" width="90" height="40" as="geometry" />
        </mxCell>
        <mxCell id="HFHnMpVE2H_I2ADA_7cu-7" value="Admin" style="rounded=0;whiteSpace=wrap;html=1;" parent="1" vertex="1">
          <mxGeometry x="805" y="749.94" width="90" height="40" as="geometry" />
        </mxCell>
        <mxCell id="HFHnMpVE2H_I2ADA_7cu-9" value="Private Event" style="rounded=0;whiteSpace=wrap;html=1;" parent="1" vertex="1">
          <mxGeometry x="520" y="939.94" width="90" height="40" as="geometry" />
        </mxCell>
        <mxCell id="HFHnMpVE2H_I2ADA_7cu-10" value="User" style="rounded=0;whiteSpace=wrap;html=1;" parent="1" vertex="1">
          <mxGeometry x="910" y="370" width="90" height="40" as="geometry" />
        </mxCell>
        <mxCell id="HFHnMpVE2H_I2ADA_7cu-11" value="Super Admin" style="rounded=0;whiteSpace=wrap;html=1;" parent="1" vertex="1">
          <mxGeometry x="925" y="749.94" width="90" height="40" as="geometry" />
        </mxCell>
        <mxCell id="HFHnMpVE2H_I2ADA_7cu-12" value="Student" style="rounded=0;whiteSpace=wrap;html=1;" parent="1" vertex="1">
          <mxGeometry x="1035" y="749.94" width="90" height="40" as="geometry" />
        </mxCell>
        <mxCell id="HFHnMpVE2H_I2ADA_7cu-13" style="edgeStyle=orthogonalEdgeStyle;rounded=0;orthogonalLoop=1;jettySize=auto;html=1;entryX=0.5;entryY=1;entryDx=0;entryDy=0;exitX=0.75;exitY=0;exitDx=0;exitDy=0;" parent="1" source="HFHnMpVE2H_I2ADA_7cu-14" target="HFHnMpVE2H_I2ADA_7cu-23" edge="1">
          <mxGeometry relative="1" as="geometry" />
        </mxCell>
        <mxCell id="HFHnMpVE2H_I2ADA_7cu-14" value="RSO" style="rounded=0;whiteSpace=wrap;html=1;" parent="1" vertex="1">
          <mxGeometry x="975" y="999.94" width="90" height="40" as="geometry" />
        </mxCell>
        <mxCell id="HFHnMpVE2H_I2ADA_7cu-15" value="University" style="rounded=0;whiteSpace=wrap;html=1;" parent="1" vertex="1">
          <mxGeometry x="580" y="700" width="90" height="40" as="geometry" />
        </mxCell>
        <mxCell id="HFHnMpVE2H_I2ADA_7cu-16" value="ISA" style="triangle;whiteSpace=wrap;html=1;direction=north;" parent="1" vertex="1">
          <mxGeometry x="350" y="929.94" width="90" height="60.06" as="geometry" />
        </mxCell>
        <mxCell id="HFHnMpVE2H_I2ADA_7cu-17" value="ISA" style="triangle;whiteSpace=wrap;html=1;direction=north;" parent="1" vertex="1">
          <mxGeometry x="920" y="485" width="70" height="60" as="geometry" />
        </mxCell>
        <mxCell id="HFHnMpVE2H_I2ADA_7cu-18" value="Host at" style="rhombus;whiteSpace=wrap;html=1;" parent="1" vertex="1">
          <mxGeometry x="335" y="240" width="120" height="70" as="geometry" />
        </mxCell>
        <mxCell id="HFHnMpVE2H_I2ADA_7cu-19" value="Comments" style="rhombus;whiteSpace=wrap;html=1;" parent="1" vertex="1">
          <mxGeometry x="530" y="355" width="120" height="70" as="geometry" />
        </mxCell>
        <mxCell id="HFHnMpVE2H_I2ADA_7cu-20" value="Creates" style="rhombus;whiteSpace=wrap;html=1;" parent="1" vertex="1">
          <mxGeometry x="635" y="924.94" width="110" height="70" as="geometry" />
        </mxCell>
        <mxCell id="HFHnMpVE2H_I2ADA_7cu-21" value="Creates" style="rhombus;whiteSpace=wrap;html=1;" parent="1" vertex="1">
          <mxGeometry x="665" y="799.94" width="110" height="70" as="geometry" />
        </mxCell>
        <mxCell id="HFHnMpVE2H_I2ADA_7cu-22" value="Is in" style="rhombus;whiteSpace=wrap;html=1;" parent="1" vertex="1">
          <mxGeometry x="915" y="889.94" width="110" height="60" as="geometry" />
        </mxCell>
        <mxCell id="HFHnMpVE2H_I2ADA_7cu-23" value="Administrates" style="rhombus;whiteSpace=wrap;html=1;" parent="1" vertex="1">
          <mxGeometry x="1030" y="889.94" width="100" height="60" as="geometry" />
        </mxCell>
        <mxCell id="HFHnMpVE2H_I2ADA_7cu-24" value="Name" style="ellipse;whiteSpace=wrap;html=1;" parent="1" vertex="1">
          <mxGeometry x="180" y="310" width="80" height="50" as="geometry" />
        </mxCell>
        <mxCell id="HFHnMpVE2H_I2ADA_7cu-25" value="&lt;span style=&quot;font-family: &amp;#34;noto_regular&amp;#34; ; color: rgb(75 , 75 , 75) ; font-size: 10pt&quot;&gt;Longtitude&lt;/span&gt;" style="ellipse;whiteSpace=wrap;html=1;" parent="1" vertex="1">
          <mxGeometry x="270" y="100" width="80" height="50" as="geometry" />
        </mxCell>
        <mxCell id="HFHnMpVE2H_I2ADA_7cu-26" value="&lt;span style=&quot;font-family: &amp;#34;noto_regular&amp;#34; ; color: rgb(75 , 75 , 75) ; font-size: 10pt&quot;&gt;Latitude&lt;/span&gt;" style="ellipse;whiteSpace=wrap;html=1;" parent="1" vertex="1">
          <mxGeometry x="440" y="100" width="80" height="50" as="geometry" />
        </mxCell>
        <mxCell id="HFHnMpVE2H_I2ADA_7cu-27" value="Time" style="ellipse;whiteSpace=wrap;html=1;" parent="1" vertex="1">
          <mxGeometry x="185" y="420" width="80" height="50" as="geometry" />
        </mxCell>
        <mxCell id="HFHnMpVE2H_I2ADA_7cu-28" value="Date" style="ellipse;whiteSpace=wrap;html=1;" parent="1" vertex="1">
          <mxGeometry x="180" y="365" width="80" height="50" as="geometry" />
        </mxCell>
        <mxCell id="HFHnMpVE2H_I2ADA_7cu-29" value="&lt;span style=&quot;font-family: &amp;#34;noto_regular&amp;#34; ; color: rgb(75 , 75 , 75) ; font-size: 10pt&quot;&gt;Descripetion&lt;/span&gt;" style="ellipse;whiteSpace=wrap;html=1;" parent="1" vertex="1">
          <mxGeometry x="195" y="470" width="80" height="50" as="geometry" />
        </mxCell>
        <mxCell id="HFHnMpVE2H_I2ADA_7cu-30" value="Email" style="ellipse;whiteSpace=wrap;html=1;" parent="1" vertex="1">
          <mxGeometry x="805" y="270" width="80" height="50" as="geometry" />
        </mxCell>
        <mxCell id="HFHnMpVE2H_I2ADA_7cu-31" value="&lt;span style=&quot;font-family: &amp;#34;noto_regular&amp;#34; ; color: rgb(75 , 75 , 75) ; font-size: 10pt&quot;&gt;Category&lt;/span&gt;" style="ellipse;whiteSpace=wrap;html=1;" parent="1" vertex="1">
          <mxGeometry x="185" y="260" width="80" height="50" as="geometry" />
        </mxCell>
        <mxCell id="HFHnMpVE2H_I2ADA_7cu-32" value="Username" style="ellipse;whiteSpace=wrap;html=1;" parent="1" vertex="1">
          <mxGeometry x="885" y="260" width="80" height="50" as="geometry" />
        </mxCell>
        <mxCell id="HFHnMpVE2H_I2ADA_7cu-33" value="ID" style="ellipse;whiteSpace=wrap;html=1;" parent="1" vertex="1">
          <mxGeometry x="740" y="305" width="80" height="50" as="geometry" />
        </mxCell>
        <mxCell id="HFHnMpVE2H_I2ADA_7cu-34" value="Name" style="ellipse;whiteSpace=wrap;html=1;" parent="1" vertex="1">
          <mxGeometry x="355" y="80" width="80" height="50" as="geometry" />
        </mxCell>
        <mxCell id="HFHnMpVE2H_I2ADA_7cu-35" value="Password" style="ellipse;whiteSpace=wrap;html=1;" parent="1" vertex="1">
          <mxGeometry x="965" y="255" width="80" height="50" as="geometry" />
        </mxCell>
        <mxCell id="HFHnMpVE2H_I2ADA_7cu-36" style="edgeStyle=orthogonalEdgeStyle;rounded=0;orthogonalLoop=1;jettySize=auto;html=1;exitX=0.5;exitY=1;exitDx=0;exitDy=0;" parent="1" source="HFHnMpVE2H_I2ADA_7cu-24" target="HFHnMpVE2H_I2ADA_7cu-24" edge="1">
          <mxGeometry relative="1" as="geometry" />
        </mxCell>
        <mxCell id="HFHnMpVE2H_I2ADA_7cu-37" value="" style="endArrow=none;html=1;exitX=0.5;exitY=0;exitDx=0;exitDy=0;entryX=0.5;entryY=1;entryDx=0;entryDy=0;edgeStyle=orthogonalEdgeStyle;curved=1;" parent="1" source="HFHnMpVE2H_I2ADA_7cu-10" target="HFHnMpVE2H_I2ADA_7cu-32" edge="1">
          <mxGeometry width="50" height="50" relative="1" as="geometry">
            <mxPoint x="500" y="440" as="sourcePoint" />
            <mxPoint x="550" y="390" as="targetPoint" />
          </mxGeometry>
        </mxCell>
        <mxCell id="HFHnMpVE2H_I2ADA_7cu-38" value="" style="endArrow=none;html=1;exitX=0.5;exitY=0;exitDx=0;exitDy=0;entryX=0.5;entryY=1;entryDx=0;entryDy=0;edgeStyle=orthogonalEdgeStyle;curved=1;" parent="1" source="HFHnMpVE2H_I2ADA_7cu-10" target="HFHnMpVE2H_I2ADA_7cu-35" edge="1">
          <mxGeometry width="50" height="50" relative="1" as="geometry">
            <mxPoint x="920" y="380" as="sourcePoint" />
            <mxPoint x="955" y="290" as="targetPoint" />
          </mxGeometry>
        </mxCell>
        <mxCell id="HFHnMpVE2H_I2ADA_7cu-39" value="" style="endArrow=none;html=1;exitX=0.5;exitY=1;exitDx=0;exitDy=0;entryX=0.5;entryY=0;entryDx=0;entryDy=0;edgeStyle=orthogonalEdgeStyle;curved=1;" parent="1" source="HFHnMpVE2H_I2ADA_7cu-30" target="HFHnMpVE2H_I2ADA_7cu-10" edge="1">
          <mxGeometry width="50" height="50" relative="1" as="geometry">
            <mxPoint x="790" y="310" as="sourcePoint" />
            <mxPoint x="825" y="220" as="targetPoint" />
          </mxGeometry>
        </mxCell>
        <mxCell id="HFHnMpVE2H_I2ADA_7cu-40" value="" style="endArrow=none;html=1;exitX=0.5;exitY=1;exitDx=0;exitDy=0;entryX=0.5;entryY=0;entryDx=0;entryDy=0;edgeStyle=orthogonalEdgeStyle;curved=1;" parent="1" source="HFHnMpVE2H_I2ADA_7cu-33" target="HFHnMpVE2H_I2ADA_7cu-10" edge="1">
          <mxGeometry width="50" height="50" relative="1" as="geometry">
            <mxPoint x="750" y="360" as="sourcePoint" />
            <mxPoint x="785" y="270" as="targetPoint" />
          </mxGeometry>
        </mxCell>
        <mxCell id="HFHnMpVE2H_I2ADA_7cu-41" value="" style="endArrow=none;html=1;exitX=0.5;exitY=0;exitDx=0;exitDy=0;entryX=0.5;entryY=1;entryDx=0;entryDy=0;edgeStyle=orthogonalEdgeStyle;curved=1;" parent="1" source="HFHnMpVE2H_I2ADA_7cu-1" target="HFHnMpVE2H_I2ADA_7cu-34" edge="1">
          <mxGeometry width="50" height="50" relative="1" as="geometry">
            <mxPoint x="280" y="190" as="sourcePoint" />
            <mxPoint x="315" y="100" as="targetPoint" />
          </mxGeometry>
        </mxCell>
        <mxCell id="HFHnMpVE2H_I2ADA_7cu-42" value="" style="endArrow=none;html=1;exitX=0.5;exitY=0;exitDx=0;exitDy=0;entryX=0.5;entryY=1;entryDx=0;entryDy=0;edgeStyle=orthogonalEdgeStyle;curved=1;" parent="1" source="HFHnMpVE2H_I2ADA_7cu-1" target="HFHnMpVE2H_I2ADA_7cu-26" edge="1">
          <mxGeometry width="50" height="50" relative="1" as="geometry">
            <mxPoint x="450" y="190" as="sourcePoint" />
            <mxPoint x="485" y="100" as="targetPoint" />
          </mxGeometry>
        </mxCell>
        <mxCell id="HFHnMpVE2H_I2ADA_7cu-43" value="" style="endArrow=none;html=1;exitX=0.5;exitY=0;exitDx=0;exitDy=0;edgeStyle=orthogonalEdgeStyle;curved=1;entryX=0.5;entryY=1;entryDx=0;entryDy=0;" parent="1" source="HFHnMpVE2H_I2ADA_7cu-1" target="HFHnMpVE2H_I2ADA_7cu-25" edge="1">
          <mxGeometry width="50" height="50" relative="1" as="geometry">
            <mxPoint x="240" y="220" as="sourcePoint" />
            <mxPoint x="340" y="160" as="targetPoint" />
          </mxGeometry>
        </mxCell>
        <mxCell id="HFHnMpVE2H_I2ADA_7cu-44" value="" style="endArrow=none;html=1;exitX=0.5;exitY=0;exitDx=0;exitDy=0;entryX=0.5;entryY=1;entryDx=0;entryDy=0;edgeStyle=orthogonalEdgeStyle;curved=1;" parent="1" source="HFHnMpVE2H_I2ADA_7cu-18" target="HFHnMpVE2H_I2ADA_7cu-1" edge="1">
          <mxGeometry width="50" height="50" relative="1" as="geometry">
            <mxPoint x="520" y="180" as="sourcePoint" />
            <mxPoint x="555" y="90" as="targetPoint" />
          </mxGeometry>
        </mxCell>
        <mxCell id="HFHnMpVE2H_I2ADA_7cu-45" value="" style="endArrow=none;html=1;exitX=0.5;exitY=0;exitDx=0;exitDy=0;entryX=0.5;entryY=1;entryDx=0;entryDy=0;edgeStyle=orthogonalEdgeStyle;curved=1;" parent="1" source="HFHnMpVE2H_I2ADA_7cu-2" target="HFHnMpVE2H_I2ADA_7cu-18" edge="1">
          <mxGeometry width="50" height="50" relative="1" as="geometry">
            <mxPoint x="370" y="340" as="sourcePoint" />
            <mxPoint x="405" y="250" as="targetPoint" />
          </mxGeometry>
        </mxCell>
        <mxCell id="HFHnMpVE2H_I2ADA_7cu-46" value="" style="endArrow=none;html=1;exitX=1;exitY=0.5;exitDx=0;exitDy=0;entryX=0;entryY=0.5;entryDx=0;entryDy=0;edgeStyle=orthogonalEdgeStyle;curved=1;" parent="1" source="HFHnMpVE2H_I2ADA_7cu-31" target="HFHnMpVE2H_I2ADA_7cu-2" edge="1">
          <mxGeometry width="50" height="50" relative="1" as="geometry">
            <mxPoint x="280" y="350" as="sourcePoint" />
            <mxPoint x="315" y="260" as="targetPoint" />
          </mxGeometry>
        </mxCell>
        <mxCell id="HFHnMpVE2H_I2ADA_7cu-47" value="" style="endArrow=none;html=1;exitX=0;exitY=0.5;exitDx=0;exitDy=0;entryX=1;entryY=0.5;entryDx=0;entryDy=0;edgeStyle=orthogonalEdgeStyle;curved=1;" parent="1" source="HFHnMpVE2H_I2ADA_7cu-2" target="HFHnMpVE2H_I2ADA_7cu-24" edge="1">
          <mxGeometry width="50" height="50" relative="1" as="geometry">
            <mxPoint x="310" y="410" as="sourcePoint" />
            <mxPoint x="345" y="320" as="targetPoint" />
          </mxGeometry>
        </mxCell>
        <mxCell id="HFHnMpVE2H_I2ADA_7cu-48" value="" style="endArrow=none;html=1;exitX=1;exitY=0.5;exitDx=0;exitDy=0;entryX=0;entryY=0.5;entryDx=0;entryDy=0;edgeStyle=orthogonalEdgeStyle;curved=1;" parent="1" source="HFHnMpVE2H_I2ADA_7cu-28" target="HFHnMpVE2H_I2ADA_7cu-2" edge="1">
          <mxGeometry width="50" height="50" relative="1" as="geometry">
            <mxPoint x="290" y="410" as="sourcePoint" />
            <mxPoint x="325" y="320" as="targetPoint" />
          </mxGeometry>
        </mxCell>
        <mxCell id="HFHnMpVE2H_I2ADA_7cu-49" value="" style="endArrow=none;html=1;exitX=0.938;exitY=0.18;exitDx=0;exitDy=0;entryX=0;entryY=0.5;entryDx=0;entryDy=0;edgeStyle=orthogonalEdgeStyle;curved=1;exitPerimeter=0;" parent="1" source="HFHnMpVE2H_I2ADA_7cu-29" target="HFHnMpVE2H_I2ADA_7cu-2" edge="1">
          <mxGeometry width="50" height="50" relative="1" as="geometry">
            <mxPoint x="330" y="460" as="sourcePoint" />
            <mxPoint x="365" y="370" as="targetPoint" />
          </mxGeometry>
        </mxCell>
        <mxCell id="HFHnMpVE2H_I2ADA_7cu-50" value="" style="endArrow=none;html=1;exitX=1;exitY=0.5;exitDx=0;exitDy=0;entryX=0;entryY=0.5;entryDx=0;entryDy=0;edgeStyle=orthogonalEdgeStyle;curved=1;" parent="1" source="HFHnMpVE2H_I2ADA_7cu-27" target="HFHnMpVE2H_I2ADA_7cu-2" edge="1">
          <mxGeometry width="50" height="50" relative="1" as="geometry">
            <mxPoint x="300" y="430" as="sourcePoint" />
            <mxPoint x="335" y="340" as="targetPoint" />
          </mxGeometry>
        </mxCell>
        <mxCell id="HFHnMpVE2H_I2ADA_7cu-51" value="" style="endArrow=none;html=1;exitX=1;exitY=0.5;exitDx=0;exitDy=0;entryX=0.5;entryY=1;entryDx=0;entryDy=0;edgeStyle=orthogonalEdgeStyle;curved=1;" parent="1" source="HFHnMpVE2H_I2ADA_7cu-16" target="HFHnMpVE2H_I2ADA_7cu-2" edge="1">
          <mxGeometry width="50" height="50" relative="1" as="geometry">
            <mxPoint x="370" y="450" as="sourcePoint" />
            <mxPoint x="405" y="360" as="targetPoint" />
          </mxGeometry>
        </mxCell>
        <mxCell id="HFHnMpVE2H_I2ADA_7cu-52" value="" style="endArrow=none;html=1;exitX=1;exitY=0.5;exitDx=0;exitDy=0;edgeStyle=orthogonalEdgeStyle;curved=1;" parent="1" source="HFHnMpVE2H_I2ADA_7cu-2" target="HFHnMpVE2H_I2ADA_7cu-19" edge="1">
          <mxGeometry width="50" height="50" relative="1" as="geometry">
            <mxPoint x="480" y="410" as="sourcePoint" />
            <mxPoint x="515" y="320" as="targetPoint" />
          </mxGeometry>
        </mxCell>
        <mxCell id="HFHnMpVE2H_I2ADA_7cu-53" value="" style="endArrow=none;html=1;exitX=1;exitY=0.5;exitDx=0;exitDy=0;entryX=0;entryY=0.5;entryDx=0;entryDy=0;edgeStyle=orthogonalEdgeStyle;curved=1;" parent="1" source="HFHnMpVE2H_I2ADA_7cu-19" target="HFHnMpVE2H_I2ADA_7cu-10" edge="1">
          <mxGeometry width="50" height="50" relative="1" as="geometry">
            <mxPoint x="700" y="390" as="sourcePoint" />
            <mxPoint x="735" y="300" as="targetPoint" />
          </mxGeometry>
        </mxCell>
        <mxCell id="HFHnMpVE2H_I2ADA_7cu-54" value="" style="endArrow=none;html=1;entryX=1;entryY=0.5;entryDx=0;entryDy=0;edgeStyle=orthogonalEdgeStyle;curved=1;exitX=0.5;exitY=1;exitDx=0;exitDy=0;" parent="1" source="HFHnMpVE2H_I2ADA_7cu-10" target="HFHnMpVE2H_I2ADA_7cu-17" edge="1">
          <mxGeometry width="50" height="50" relative="1" as="geometry">
            <mxPoint x="845" y="438" as="sourcePoint" />
            <mxPoint x="875" y="360" as="targetPoint" />
          </mxGeometry>
        </mxCell>
        <mxCell id="HFHnMpVE2H_I2ADA_7cu-55" value="" style="endArrow=none;html=1;exitX=0.5;exitY=0;exitDx=0;exitDy=0;entryX=0;entryY=0.5;entryDx=0;entryDy=0;edgeStyle=orthogonalEdgeStyle;" parent="1" source="HFHnMpVE2H_I2ADA_7cu-11" target="HFHnMpVE2H_I2ADA_7cu-17" edge="1">
          <mxGeometry width="50" height="50" relative="1" as="geometry">
            <mxPoint x="950" y="595" as="sourcePoint" />
            <mxPoint x="985" y="505" as="targetPoint" />
            <Array as="points">
              <mxPoint x="955" y="700" />
              <mxPoint x="955" y="700" />
            </Array>
          </mxGeometry>
        </mxCell>
        <mxCell id="HFHnMpVE2H_I2ADA_7cu-56" value="" style="endArrow=none;html=1;exitX=0.5;exitY=0;exitDx=0;exitDy=0;entryX=0;entryY=0.5;entryDx=0;entryDy=0;edgeStyle=orthogonalEdgeStyle;" parent="1" source="HFHnMpVE2H_I2ADA_7cu-7" target="HFHnMpVE2H_I2ADA_7cu-17" edge="1">
          <mxGeometry width="50" height="50" relative="1" as="geometry">
            <mxPoint x="850" y="595" as="sourcePoint" />
            <mxPoint x="885" y="505" as="targetPoint" />
          </mxGeometry>
        </mxCell>
        <mxCell id="HFHnMpVE2H_I2ADA_7cu-57" value="" style="endArrow=none;html=1;exitX=0.5;exitY=0;exitDx=0;exitDy=0;entryX=0;entryY=0.5;entryDx=0;entryDy=0;edgeStyle=orthogonalEdgeStyle;" parent="1" source="HFHnMpVE2H_I2ADA_7cu-12" target="HFHnMpVE2H_I2ADA_7cu-17" edge="1">
          <mxGeometry width="50" height="50" relative="1" as="geometry">
            <mxPoint x="1070" y="555" as="sourcePoint" />
            <mxPoint x="1105" y="465" as="targetPoint" />
          </mxGeometry>
        </mxCell>
        <mxCell id="HFHnMpVE2H_I2ADA_7cu-58" value="" style="endArrow=none;html=1;exitX=1;exitY=0;exitDx=0;exitDy=0;entryX=0.25;entryY=1;entryDx=0;entryDy=0;edgeStyle=orthogonalEdgeStyle;" parent="1" source="HFHnMpVE2H_I2ADA_7cu-22" target="HFHnMpVE2H_I2ADA_7cu-12" edge="1">
          <mxGeometry width="50" height="50" relative="1" as="geometry">
            <mxPoint x="1045" y="819.94" as="sourcePoint" />
            <mxPoint x="1080" y="729.94" as="targetPoint" />
            <Array as="points">
              <mxPoint x="998" y="884.94" />
              <mxPoint x="1058" y="884.94" />
            </Array>
          </mxGeometry>
        </mxCell>
        <mxCell id="HFHnMpVE2H_I2ADA_7cu-59" value="" style="endArrow=none;html=1;exitX=0.5;exitY=1;exitDx=0;exitDy=0;entryX=0.5;entryY=0;entryDx=0;entryDy=0;edgeStyle=orthogonalEdgeStyle;" parent="1" source="HFHnMpVE2H_I2ADA_7cu-12" target="HFHnMpVE2H_I2ADA_7cu-23" edge="1">
          <mxGeometry width="50" height="50" relative="1" as="geometry">
            <mxPoint x="1115" y="799.94" as="sourcePoint" />
            <mxPoint x="1150" y="709.94" as="targetPoint" />
          </mxGeometry>
        </mxCell>
        <mxCell id="HFHnMpVE2H_I2ADA_7cu-60" value="" style="endArrow=none;html=1;exitX=0.5;exitY=0;exitDx=0;exitDy=0;entryX=0.5;entryY=1;entryDx=0;entryDy=0;edgeStyle=orthogonalEdgeStyle;" parent="1" source="HFHnMpVE2H_I2ADA_7cu-14" target="HFHnMpVE2H_I2ADA_7cu-22" edge="1">
          <mxGeometry width="50" height="50" relative="1" as="geometry">
            <mxPoint x="1045" y="929.94" as="sourcePoint" />
            <mxPoint x="1080" y="839.94" as="targetPoint" />
          </mxGeometry>
        </mxCell>
        <mxCell id="HFHnMpVE2H_I2ADA_7cu-65" value="" style="endArrow=none;html=1;exitX=0.5;exitY=0;exitDx=0;exitDy=0;entryX=0.5;entryY=1;entryDx=0;entryDy=0;edgeStyle=orthogonalEdgeStyle;fillColor=#001933;" parent="1" source="HFHnMpVE2H_I2ADA_7cu-22" target="HFHnMpVE2H_I2ADA_7cu-11" edge="1">
          <mxGeometry width="50" height="50" relative="1" as="geometry">
            <mxPoint x="915" y="819.94" as="sourcePoint" />
            <mxPoint x="950" y="729.94" as="targetPoint" />
          </mxGeometry>
        </mxCell>
        <mxCell id="HFHnMpVE2H_I2ADA_7cu-66" value="" style="endArrow=none;html=1;exitX=0;exitY=0.5;exitDx=0;exitDy=0;entryX=0.5;entryY=1;entryDx=0;entryDy=0;edgeStyle=orthogonalEdgeStyle;" parent="1" source="HFHnMpVE2H_I2ADA_7cu-14" target="HFHnMpVE2H_I2ADA_7cu-6" edge="1">
          <mxGeometry width="50" height="50" relative="1" as="geometry">
            <mxPoint x="635" y="814.94" as="sourcePoint" />
            <mxPoint x="585" y="724.94" as="targetPoint" />
            <Array as="points">
              <mxPoint x="975" y="1014.94" />
              <mxPoint x="765" y="1014.94" />
              <mxPoint x="765" y="904.94" />
              <mxPoint x="565" y="904.94" />
            </Array>
          </mxGeometry>
        </mxCell>
        <mxCell id="vq5s8mBlksLQqWaTSrM9-9" value="" style="endArrow=classic;html=1;entryX=1;entryY=0.5;entryDx=0;entryDy=0;exitX=0.25;exitY=0;exitDx=0;exitDy=0;" edge="1" parent="1" source="HFHnMpVE2H_I2ADA_7cu-7" target="HFHnMpVE2H_I2ADA_7cu-15">
          <mxGeometry width="50" height="50" relative="1" as="geometry">
            <mxPoint x="850" y="750" as="sourcePoint" />
            <mxPoint x="890" y="585" as="targetPoint" />
            <Array as="points">
              <mxPoint x="828" y="720" />
            </Array>
          </mxGeometry>
        </mxCell>
        <mxCell id="vq5s8mBlksLQqWaTSrM9-10" value="" style="endArrow=none;html=1;exitX=0.75;exitY=1;exitDx=0;exitDy=0;entryX=0;entryY=0;entryDx=0;entryDy=0;edgeStyle=orthogonalEdgeStyle;" edge="1" parent="1" source="HFHnMpVE2H_I2ADA_7cu-7" target="HFHnMpVE2H_I2ADA_7cu-22">
          <mxGeometry width="50" height="50" relative="1" as="geometry">
            <mxPoint x="845" y="779.94" as="sourcePoint" />
            <mxPoint x="895" y="729.94" as="targetPoint" />
          </mxGeometry>
        </mxCell>
        <mxCell id="vq5s8mBlksLQqWaTSrM9-12" value="" style="endArrow=classic;html=1;exitX=1;exitY=0.5;exitDx=0;exitDy=0;entryX=0;entryY=0.5;entryDx=0;entryDy=0;" edge="1" parent="1" source="HFHnMpVE2H_I2ADA_7cu-9" target="HFHnMpVE2H_I2ADA_7cu-20">
          <mxGeometry width="50" height="50" relative="1" as="geometry">
            <mxPoint x="725" y="964.94" as="sourcePoint" />
            <mxPoint x="775" y="914.94" as="targetPoint" />
          </mxGeometry>
        </mxCell>
        <mxCell id="vq5s8mBlksLQqWaTSrM9-17" value="" style="endArrow=none;html=1;exitX=0.5;exitY=1;exitDx=0;exitDy=0;entryX=0;entryY=0.5;entryDx=0;entryDy=0;edgeStyle=orthogonalEdgeStyle;curved=1;" edge="1" parent="1" source="HFHnMpVE2H_I2ADA_7cu-16" target="HFHnMpVE2H_I2ADA_7cu-6">
          <mxGeometry width="50" height="50" relative="1" as="geometry">
            <mxPoint x="725" y="1064.94" as="sourcePoint" />
            <mxPoint x="775" y="1014.94" as="targetPoint" />
          </mxGeometry>
        </mxCell>
        <mxCell id="vq5s8mBlksLQqWaTSrM9-18" value="" style="endArrow=none;html=1;exitX=0.5;exitY=1;exitDx=0;exitDy=0;entryX=0;entryY=0.5;entryDx=0;entryDy=0;" edge="1" parent="1" source="HFHnMpVE2H_I2ADA_7cu-16" target="HFHnMpVE2H_I2ADA_7cu-9">
          <mxGeometry width="50" height="50" relative="1" as="geometry">
            <mxPoint x="725" y="1064.94" as="sourcePoint" />
            <mxPoint x="775" y="1014.94" as="targetPoint" />
          </mxGeometry>
        </mxCell>
        <mxCell id="vq5s8mBlksLQqWaTSrM9-20" value="" style="endArrow=none;html=1;exitX=0.5;exitY=1;exitDx=0;exitDy=0;entryX=0;entryY=0.5;entryDx=0;entryDy=0;edgeStyle=orthogonalEdgeStyle;curved=1;" edge="1" parent="1" source="HFHnMpVE2H_I2ADA_7cu-16" target="HFHnMpVE2H_I2ADA_7cu-4">
          <mxGeometry width="50" height="50" relative="1" as="geometry">
            <mxPoint x="725" y="1064.94" as="sourcePoint" />
            <mxPoint x="775" y="1014.94" as="targetPoint" />
          </mxGeometry>
        </mxCell>
        <mxCell id="vq5s8mBlksLQqWaTSrM9-21" value="" style="endArrow=none;html=1;exitX=0.5;exitY=0;exitDx=0;exitDy=0;entryX=0;entryY=0.5;entryDx=0;entryDy=0;edgeStyle=orthogonalEdgeStyle;" edge="1" parent="1" source="HFHnMpVE2H_I2ADA_7cu-21" target="HFHnMpVE2H_I2ADA_7cu-7">
          <mxGeometry width="50" height="50" relative="1" as="geometry">
            <mxPoint x="725" y="1064.94" as="sourcePoint" />
            <mxPoint x="775" y="1014.94" as="targetPoint" />
            <Array as="points">
              <mxPoint x="720" y="770" />
            </Array>
          </mxGeometry>
        </mxCell>
        <mxCell id="vq5s8mBlksLQqWaTSrM9-22" value="" style="endArrow=none;html=1;exitX=1;exitY=0.5;exitDx=0;exitDy=0;entryX=0.5;entryY=1;entryDx=0;entryDy=0;" edge="1" parent="1" source="HFHnMpVE2H_I2ADA_7cu-20" target="HFHnMpVE2H_I2ADA_7cu-7">
          <mxGeometry width="50" height="50" relative="1" as="geometry">
            <mxPoint x="725" y="1064.94" as="sourcePoint" />
            <mxPoint x="775" y="1014.94" as="targetPoint" />
            <Array as="points">
              <mxPoint x="850" y="959.94" />
            </Array>
          </mxGeometry>
        </mxCell>
        <mxCell id="vq5s8mBlksLQqWaTSrM9-23" value="" style="endArrow=classic;html=1;exitX=0.25;exitY=1;exitDx=0;exitDy=0;entryX=0.5;entryY=0;entryDx=0;entryDy=0;edgeStyle=orthogonalEdgeStyle;" edge="1" parent="1" source="HFHnMpVE2H_I2ADA_7cu-11" target="HFHnMpVE2H_I2ADA_7cu-20">
          <mxGeometry width="50" height="50" relative="1" as="geometry">
            <mxPoint x="265" y="884.94" as="sourcePoint" />
            <mxPoint x="315" y="834.94" as="targetPoint" />
            <Array as="points">
              <mxPoint x="955" y="789.94" />
              <mxPoint x="955" y="874.94" />
              <mxPoint x="690" y="874.94" />
            </Array>
          </mxGeometry>
        </mxCell>
        <mxCell id="vq5s8mBlksLQqWaTSrM9-24" value="" style="endArrow=none;html=1;entryX=0;entryY=0.5;entryDx=0;entryDy=0;" edge="1" parent="1" target="HFHnMpVE2H_I2ADA_7cu-15">
          <mxGeometry width="50" height="50" relative="1" as="geometry">
            <mxPoint x="428" y="412" as="sourcePoint" />
            <mxPoint x="428" y="700" as="targetPoint" />
            <Array as="points">
              <mxPoint x="430" y="720" />
            </Array>
          </mxGeometry>
        </mxCell>
        <mxCell id="vq5s8mBlksLQqWaTSrM9-25" value="is_admin" style="ellipse;whiteSpace=wrap;html=1;" vertex="1" parent="1">
          <mxGeometry x="1045" y="255" width="90" height="45" as="geometry" />
        </mxCell>
        <mxCell id="vq5s8mBlksLQqWaTSrM9-26" value="is_SuoerAmdin" style="ellipse;whiteSpace=wrap;html=1;" vertex="1" parent="1">
          <mxGeometry x="1125" y="280" width="90" height="40" as="geometry" />
        </mxCell>
        <mxCell id="vq5s8mBlksLQqWaTSrM9-29" value="" style="endArrow=none;html=1;exitX=0.5;exitY=0;exitDx=0;exitDy=0;entryX=0.5;entryY=1;entryDx=0;entryDy=0;edgeStyle=orthogonalEdgeStyle;curved=1;" edge="1" parent="1" source="HFHnMpVE2H_I2ADA_7cu-10" target="vq5s8mBlksLQqWaTSrM9-25">
          <mxGeometry width="50" height="50" relative="1" as="geometry">
            <mxPoint x="820" y="410" as="sourcePoint" />
            <mxPoint x="870" y="360" as="targetPoint" />
          </mxGeometry>
        </mxCell>
        <mxCell id="vq5s8mBlksLQqWaTSrM9-30" value="" style="endArrow=none;html=1;entryX=0.5;entryY=1;entryDx=0;entryDy=0;exitX=0.598;exitY=-0.012;exitDx=0;exitDy=0;exitPerimeter=0;edgeStyle=orthogonalEdgeStyle;curved=1;" edge="1" parent="1" source="HFHnMpVE2H_I2ADA_7cu-10" target="vq5s8mBlksLQqWaTSrM9-26">
          <mxGeometry width="50" height="50" relative="1" as="geometry">
            <mxPoint x="1100" y="430" as="sourcePoint" />
            <mxPoint x="1150" y="380" as="targetPoint" />
          </mxGeometry>
        </mxCell>
        <mxCell id="vq5s8mBlksLQqWaTSrM9-31" value="" style="ellipse;whiteSpace=wrap;html=1;" vertex="1" parent="1">
          <mxGeometry x="40" y="665" width="70" height="35" as="geometry" />
        </mxCell>
        <mxCell id="vq5s8mBlksLQqWaTSrM9-32" value="location" style="ellipse;whiteSpace=wrap;html=1;" vertex="1" parent="1">
          <mxGeometry x="665" y="640" width="70" height="35" as="geometry" />
        </mxCell>
        <mxCell id="vq5s8mBlksLQqWaTSrM9-33" value="status" style="ellipse;whiteSpace=wrap;html=1;" vertex="1" parent="1">
          <mxGeometry x="1240" y="1140" width="70" height="35" as="geometry" />
        </mxCell>
        <mxCell id="vq5s8mBlksLQqWaTSrM9-34" value="photo_path" style="ellipse;whiteSpace=wrap;html=1;" vertex="1" parent="1">
          <mxGeometry x="665" y="515" width="70" height="35" as="geometry" />
        </mxCell>
        <mxCell id="vq5s8mBlksLQqWaTSrM9-35" value="university_name" style="ellipse;whiteSpace=wrap;html=1;" vertex="1" parent="1">
          <mxGeometry x="520" y="510" width="125" height="35" as="geometry" />
        </mxCell>
        <mxCell id="vq5s8mBlksLQqWaTSrM9-36" value="num_students" style="ellipse;whiteSpace=wrap;html=1;" vertex="1" parent="1">
          <mxGeometry x="730" y="660" width="100" height="35" as="geometry" />
        </mxCell>
        <mxCell id="vq5s8mBlksLQqWaTSrM9-38" value="total_students" style="ellipse;whiteSpace=wrap;html=1;" vertex="1" parent="1">
          <mxGeometry x="1145" y="1140" width="85" height="35" as="geometry" />
        </mxCell>
        <mxCell id="vq5s8mBlksLQqWaTSrM9-39" value="admin" style="ellipse;whiteSpace=wrap;html=1;" vertex="1" parent="1">
          <mxGeometry x="1065" y="1140" width="70" height="35" as="geometry" />
        </mxCell>
        <mxCell id="vq5s8mBlksLQqWaTSrM9-40" value="students" style="ellipse;whiteSpace=wrap;html=1;" vertex="1" parent="1">
          <mxGeometry x="990" y="1140" width="70" height="35" as="geometry" />
        </mxCell>
        <mxCell id="vq5s8mBlksLQqWaTSrM9-41" value="university" style="ellipse;whiteSpace=wrap;html=1;" vertex="1" parent="1">
          <mxGeometry x="910" y="1140" width="70" height="35" as="geometry" />
        </mxCell>
        <mxCell id="vq5s8mBlksLQqWaTSrM9-42" value="description" style="ellipse;whiteSpace=wrap;html=1;" vertex="1" parent="1">
          <mxGeometry x="835" y="1140" width="70" height="35" as="geometry" />
        </mxCell>
        <mxCell id="vq5s8mBlksLQqWaTSrM9-43" value="name" style="ellipse;whiteSpace=wrap;html=1;" vertex="1" parent="1">
          <mxGeometry x="745" y="1140" width="70" height="35" as="geometry" />
        </mxCell>
        <mxCell id="vq5s8mBlksLQqWaTSrM9-44" value="id" style="ellipse;whiteSpace=wrap;html=1;" vertex="1" parent="1">
          <mxGeometry x="670" y="1140" width="70" height="35" as="geometry" />
        </mxCell>
        <mxCell id="vq5s8mBlksLQqWaTSrM9-45" value="name" style="ellipse;whiteSpace=wrap;html=1;" vertex="1" parent="1">
          <mxGeometry x="520" y="640" width="70" height="35" as="geometry" />
        </mxCell>
        <mxCell id="vq5s8mBlksLQqWaTSrM9-46" value="description" style="ellipse;whiteSpace=wrap;html=1;" vertex="1" parent="1">
          <mxGeometry x="460" y="665" width="70" height="35" as="geometry" />
        </mxCell>
        <mxCell id="vq5s8mBlksLQqWaTSrM9-47" value="" style="ellipse;whiteSpace=wrap;html=1;" vertex="1" parent="1">
          <mxGeometry x="40" y="665" width="70" height="35" as="geometry" />
        </mxCell>
        <mxCell id="vq5s8mBlksLQqWaTSrM9-48" value="" style="ellipse;whiteSpace=wrap;html=1;" vertex="1" parent="1">
          <mxGeometry x="50" y="675" width="70" height="35" as="geometry" />
        </mxCell>
        <mxCell id="vq5s8mBlksLQqWaTSrM9-49" value="" style="ellipse;whiteSpace=wrap;html=1;" vertex="1" parent="1">
          <mxGeometry x="60" y="685" width="70" height="35" as="geometry" />
        </mxCell>
        <mxCell id="vq5s8mBlksLQqWaTSrM9-50" value="" style="ellipse;whiteSpace=wrap;html=1;" vertex="1" parent="1">
          <mxGeometry x="70" y="695" width="70" height="35" as="geometry" />
        </mxCell>
        <mxCell id="vq5s8mBlksLQqWaTSrM9-51" value="" style="ellipse;whiteSpace=wrap;html=1;" vertex="1" parent="1">
          <mxGeometry x="80" y="705" width="70" height="35" as="geometry" />
        </mxCell>
        <mxCell id="vq5s8mBlksLQqWaTSrM9-52" value="" style="ellipse;whiteSpace=wrap;html=1;" vertex="1" parent="1">
          <mxGeometry x="90" y="715" width="70" height="35" as="geometry" />
        </mxCell>
        <mxCell id="vq5s8mBlksLQqWaTSrM9-53" value="" style="ellipse;whiteSpace=wrap;html=1;" vertex="1" parent="1">
          <mxGeometry x="100" y="725" width="70" height="35" as="geometry" />
        </mxCell>
        <mxCell id="vq5s8mBlksLQqWaTSrM9-54" value="" style="ellipse;whiteSpace=wrap;html=1;" vertex="1" parent="1">
          <mxGeometry x="110" y="735" width="70" height="35" as="geometry" />
        </mxCell>
        <mxCell id="vq5s8mBlksLQqWaTSrM9-55" value="" style="ellipse;whiteSpace=wrap;html=1;" vertex="1" parent="1">
          <mxGeometry x="120" y="745" width="70" height="35" as="geometry" />
        </mxCell>
        <mxCell id="vq5s8mBlksLQqWaTSrM9-56" value="" style="ellipse;whiteSpace=wrap;html=1;" vertex="1" parent="1">
          <mxGeometry x="130" y="755" width="70" height="35" as="geometry" />
        </mxCell>
        <mxCell id="vq5s8mBlksLQqWaTSrM9-57" value="" style="ellipse;whiteSpace=wrap;html=1;" vertex="1" parent="1">
          <mxGeometry x="140" y="765" width="70" height="35" as="geometry" />
        </mxCell>
        <mxCell id="vq5s8mBlksLQqWaTSrM9-58" value="" style="ellipse;whiteSpace=wrap;html=1;" vertex="1" parent="1">
          <mxGeometry x="150" y="775" width="70" height="35" as="geometry" />
        </mxCell>
        <mxCell id="vq5s8mBlksLQqWaTSrM9-59" value="" style="ellipse;whiteSpace=wrap;html=1;" vertex="1" parent="1">
          <mxGeometry x="160" y="785" width="70" height="35" as="geometry" />
        </mxCell>
        <mxCell id="vq5s8mBlksLQqWaTSrM9-60" value="timestamp" style="ellipse;whiteSpace=wrap;html=1;" vertex="1" parent="1">
          <mxGeometry x="310" y="1170" width="70" height="35" as="geometry" />
        </mxCell>
        <mxCell id="vq5s8mBlksLQqWaTSrM9-61" value="rating" style="ellipse;whiteSpace=wrap;html=1;" vertex="1" parent="1">
          <mxGeometry x="230" y="1160" width="70" height="35" as="geometry" />
        </mxCell>
        <mxCell id="vq5s8mBlksLQqWaTSrM9-62" value="content" style="ellipse;whiteSpace=wrap;html=1;" vertex="1" parent="1">
          <mxGeometry x="150" y="1150" width="70" height="35" as="geometry" />
        </mxCell>
        <mxCell id="vq5s8mBlksLQqWaTSrM9-63" value="user" style="ellipse;whiteSpace=wrap;html=1;" vertex="1" parent="1">
          <mxGeometry x="70" y="1160" width="70" height="35" as="geometry" />
        </mxCell>
        <mxCell id="vq5s8mBlksLQqWaTSrM9-65" value="Pictures" style="rounded=0;whiteSpace=wrap;html=1;" vertex="1" parent="1">
          <mxGeometry x="585" y="600" width="80" height="40" as="geometry" />
        </mxCell>
      </root>
    </mxGraphModel>
  </diagram>
</mxfile>
